<?xml version="1.0" encoding="utf-8"?>
<!-- Generator: Adobe Illustrator 18.1.1, SVG Export Plug-In . SVG Version: 6.00 Build 0)  -->
<svg version="1.1" id="Layer_1" xmlns="http://www.w3.org/2000/svg" xmlns:xlink="http://www.w3.org/1999/xlink" x="0px" y="0px"
	 viewBox="0 0 595.3 841.9" enable-background="new 0 0 595.3 841.9" xml:space="preserve">
<path d="M0-0.1v842h595.3v-842H0z M556.4,787.2H38.9V54.6h517.5V787.2z"/>
<rect x="130.2" y="451.2" width="353.2" height="40.4"/>
<rect x="130.2" y="526.1" width="353.2" height="40.4"/>
<rect x="130.2" y="601.1" width="353.2" height="40.4"/>
<rect x="130.2" y="676" width="353.2" height="40.4"/>
<path d="M379,173.8c-7.1-4.7-11.2-2.4-13.6,0l-56.8,53.3c-8.3-1.8-17.2,0-22.5,5.9c-8.9,8.9-8.9,24.9,0,36.7c1.2,1.2,3,1.8,4.1,2.4
	l4.7,56.8c0,4.7,2.4,8.9,11.2,8.9c7.1,0,11.2-7.1,11.2-8.9l3.6-58.6c0.6,0,0.6-0.6,1.2-0.6c5.9-7.1,7.1-16,5.9-23.7l50.9-58
	C380.8,185.1,383.2,178,379,173.8z"/>
<path d="M135.2,250.7c0,93.5,77.5,170.4,170.4,170.4s170.4-77.5,170.4-170.4S398.5,80.3,305.6,80.3c-32,0-61.5,8.9-86.4,22.5l0,0
	c8.9,0,16,4.7,20.7,8.9c4.7,4.7,7.1,11.2,8.9,18.3c18.3-8.9,36.7-13.6,56.8-13.6c72.8,0,134.3,59.2,134.3,134.3
	c0,72.8-59.2,134.3-134.3,134.3c-72.8,0-133.7-59.2-134.3-133.7c0.6,0,1.2,0,2.4-0.6c0-40.8,18.3-56.8,18.3-56.8l18.3,16
	c2.4,2.4,4.7,2.4,7.1,2.4c2.4,0,4.7-2.4,4.7-4.7c7.1-32,4.7-72.8,4.7-75.2c0-2.4-2.4-4.7-2.4-4.7c-2.4-2.4-2.4-2.4-4.7-2.4l0,0
	c-2.4,0-40.8-2.4-77.5,4.7c-2.4,0-4.7,2.4-4.7,4.7c0,2.4,0,7.1,2.4,7.1l20.7,18.3c0,0-5.9,9.5-11.8,26.6
	C139.4,205.8,135.2,227.7,135.2,250.7z"/>
</svg>
