<?xml version="1.0" encoding="utf-8"?>
<!-- Generator: Adobe Illustrator 18.1.1, SVG Export Plug-In . SVG Version: 6.00 Build 0)  -->
<svg version="1.1" id="Layer_1" xmlns:sketch="http://www.bohemiancoding.com/sketch/ns"
	 xmlns="http://www.w3.org/2000/svg" xmlns:xlink="http://www.w3.org/1999/xlink" x="0px" y="0px" viewBox="0 0 595.3 841.9"
	 enable-background="new 0 0 595.3 841.9" xml:space="preserve">
<title>clipboard</title>
<desc>Created with Sketch.</desc>
<path id="clipboard" sketch:type="MSShapeGroup" d="M338.6,42.2h96.2c19.4,0,35.5,13.5,38.8,32.1h85.3c16,0,29.5,13.5,29.5,29.5
	v707.5c0,16-13.5,29.5-29.5,29.5H29.5c-16,0-29.5-13.5-29.5-29.5V103.8c0-16,13.5-29.5,29.5-29.5h85.3c3.4-18.6,19.4-32.1,38.8-32.1
	h96.2C251.6,18.6,271,0,294.7,0C317.4,0,336.9,18.6,338.6,42.2L338.6,42.2L338.6,42.2z M113.1,125.8H38.8v664.4h509.9V125.8h-74.3
	v22H113.1V125.8L113.1,125.8z M78.5,298.9c0,33.8,27,60.8,60.8,60.8s60.8-27,60.8-60.8c0-5.1-4.2-10.1-10.1-10.1
	s-10.1,4.2-10.1,10.1c0,22.8-18.6,41.4-41.4,41.4s-41.4-18.6-41.4-41.4s18.6-41.4,41.4-41.4c5.1,0,10.1-4.2,10.1-10.1
	s-4.2-10.1-10.1-10.1C105.5,237.2,78.5,265.1,78.5,298.9L78.5,298.9z M78.5,471.1c0,33.8,27,60.8,60.8,60.8s60.8-27,60.8-60.8
	c0-5.1-4.2-10.1-10.1-10.1s-10.1,4.2-10.1,10.1c0,22.8-18.6,41.4-41.4,41.4s-41.4-18.6-41.4-41.4s18.6-41.4,41.4-41.4
	c5.1,0,10.1-4.2,10.1-10.1c0-5.1-4.2-10.1-10.1-10.1C105.5,409.5,78.5,437.3,78.5,471.1L78.5,471.1z M200.1,632.4
	c0-33.8-27-60.8-60.8-60.8s-60.8,27-60.8,60.8c0,33.8,27,60.8,60.8,60.8C173.1,694,200.1,666.1,200.1,632.4L200.1,632.4z
	 M97.9,632.4c0-22.8,18.6-41.4,41.4-41.4s41.4,18.6,41.4,41.4c0,22.8-18.6,41.4-41.4,41.4S97.9,655.2,97.9,632.4L97.9,632.4z
	 M472.8,314.1c11,0,19.4-8.4,19.4-19.4s-8.4-19.4-19.4-19.4H256.7c-11,0-19.4,8.4-19.4,19.4s8.4,19.4,19.4,19.4H472.8L472.8,314.1z
	 M472.8,485.5c11,0,19.4-8.4,19.4-19.4s-8.4-19.4-19.4-19.4H256.7c-11,0-19.4,8.4-19.4,19.4s8.4,19.4,19.4,19.4H472.8L472.8,485.5z
	 M137.6,313.2l7.6,7.6l6.8-8.4l54-68.4c3.4-4.2,2.5-10.1-1.7-13.5c-4.2-3.4-10.1-2.5-13.5,1.7l-47.3,59.9l-12.7-11.8
	c-4.2-3.4-10.1-3.4-13.5,0c-3.4,4.2-3.4,10.1,0,14.4L137.6,313.2L137.6,313.2z M137.6,484.6l7.6,7.6l6.8-8.4l54-68.4
	c3.4-4.2,2.5-10.1-1.7-13.5c-4.2-3.4-10.1-2.5-13.5,1.7l-47.3,59.9l-12.7-11.8c-4.2-3.4-10.1-3.4-13.5,0c-3.4,4.2-3.4,10.1,0,14.4
	L137.6,484.6L137.6,484.6z"/>
<g>
	<g>
		<path d="M464.2,552.3c0,0.9,0,1.7-0.3,2.3c0,0.3-0.3,0.9-0.3,1.2c-0.6,2-1.7,3.8-2.9,4.9l-38.9,38.9c-2.3,2.3-5.5,3.5-8.7,3.5
			s-6.4-1.2-8.7-3.5c-4.6-4.6-4.6-12.5,0-17.4l18-18h-61.5c-37.5,0-68.2,30.5-68.2,68.2c0,18.3,7,35.4,20,48.2
			c4.6,4.6,4.6,12.5,0,17.4c-2.3,2.3-5.5,3.5-8.7,3.5c-3.2,0-6.4-1.2-8.7-3.5c-17.4-17.4-27-40.6-27-65.3
			c0-51.1,41.5-92.6,92.6-92.6h61.8l-18-18c-4.6-4.6-4.6-12.5,0-17.4c4.6-4.6,12.5-4.6,17.4,0l38.9,38.9c1.5,1.5,2.3,3.2,2.9,4.9
			c0,0.3,0.3,0.9,0.3,1.2C464.2,550.6,464.2,551.5,464.2,552.3z"/>
	</g>
</g>
<g>
	<g>
		<path d="M529.5,633.6c0,51.1-41.5,92.6-92.6,92.6h-61.8l18,18c4.9,4.6,4.9,12.5,0,17.4c-2.3,2.3-5.5,3.5-8.7,3.5s-6.1-1.2-8.7-3.5
			L337,722.5c-1.5-1.5-2.3-3.2-2.9-4.9c0-0.3-0.3-0.9-0.3-1.2c-0.3-0.9-0.3-1.5-0.3-2.3c0-0.9,0-1.7,0.3-2.3c0-0.3,0.3-0.9,0.3-1.2
			c0.6-2,1.7-3.8,2.9-4.9l38.9-38.9c4.6-4.6,12.5-4.6,17.4,0c4.9,4.6,4.9,12.5,0,17.4l-18,18h61.8c37.5,0,68.2-30.5,68.2-68.2
			c0-18.3-7-35.4-20-48.2c-4.9-4.9-4.9-12.5,0-17.4c4.6-4.6,12.5-4.6,17.4,0C519.9,585.4,529.5,608.7,529.5,633.6z"/>
	</g>
</g>
</svg>
