<?xml version="1.0" encoding="utf-8"?>
<!-- Generator: Adobe Illustrator 18.1.1, SVG Export Plug-In . SVG Version: 6.00 Build 0)  -->
<svg version="1.1" id="Layer_1" xmlns:sketch="http://www.bohemiancoding.com/sketch/ns"
	 xmlns="http://www.w3.org/2000/svg" xmlns:xlink="http://www.w3.org/1999/xlink" x="0px" y="0px" viewBox="0 0 595.3 841.9"
	 enable-background="new 0 0 595.3 841.9" xml:space="preserve">
<title>clipboard</title>
<desc>Created with Sketch.</desc>
<g id="Page-1" sketch:type="MSPage">
	<g id="myIcons" transform="translate(-40.000000, -464.000000)" sketch:type="MSArtboardGroup">
		<path id="clipboard" sketch:type="MSShapeGroup" d="M378.6,506.2h96.2c19.4,0,35.5,13.5,38.8,32.1h85.3c16,0,29.5,13.5,29.5,29.5
			v707.5c0,16-13.5,29.5-29.5,29.5H69.5c-16,0-29.5-13.5-29.5-29.5V567.8c0-16,13.5-29.5,29.5-29.5h85.3
			c3.4-18.6,19.4-32.1,38.8-32.1h96.2c1.7-23.6,21.1-42.2,44.7-42.2C357.4,464,376.9,482.6,378.6,506.2L378.6,506.2L378.6,506.2z
			 M153.1,589.8H78.8v664.4h509.9V589.8h-74.3v22H153.1V589.8L153.1,589.8z M118.5,762.9c0,33.8,27,60.8,60.8,60.8
			s60.8-27,60.8-60.8c0-5.1-4.2-10.1-10.1-10.1s-10.1,4.2-10.1,10.1c0,22.8-18.6,41.4-41.4,41.4s-41.4-18.6-41.4-41.4
			c0-22.8,18.6-41.4,41.4-41.4c5.1,0,10.1-4.2,10.1-10.1s-4.2-10.1-10.1-10.1C145.5,701.2,118.5,729.1,118.5,762.9L118.5,762.9z
			 M118.5,935.1c0,33.8,27,60.8,60.8,60.8s60.8-27,60.8-60.8c0-5.1-4.2-10.1-10.1-10.1s-10.1,4.2-10.1,10.1
			c0,22.8-18.6,41.4-41.4,41.4s-41.4-18.6-41.4-41.4c0-22.8,18.6-41.4,41.4-41.4c5.1,0,10.1-4.2,10.1-10.1c0-5.1-4.2-10.1-10.1-10.1
			C145.5,873.5,118.5,901.3,118.5,935.1L118.5,935.1z M240.1,1096.4c0-33.8-27-60.8-60.8-60.8s-60.8,27-60.8,60.8
			c0,33.8,27,60.8,60.8,60.8C213.1,1158,240.1,1130.1,240.1,1096.4L240.1,1096.4z M137.9,1096.4c0-22.8,18.6-41.4,41.4-41.4
			s41.4,18.6,41.4,41.4c0,22.8-18.6,41.4-41.4,41.4S137.9,1119.2,137.9,1096.4L137.9,1096.4z M512.8,778.1c11,0,19.4-8.4,19.4-19.4
			c0-11-8.4-19.4-19.4-19.4H296.7c-11,0-19.4,8.4-19.4,19.4c0,11,8.4,19.4,19.4,19.4H512.8L512.8,778.1z M512.8,949.5
			c11,0,19.4-8.4,19.4-19.4c0-11-8.4-19.4-19.4-19.4H296.7c-11,0-19.4,8.4-19.4,19.4c0,11,8.4,19.4,19.4,19.4H512.8L512.8,949.5z
			 M512.8,1110.7c11,0,19.4-8.4,19.4-19.4c0-11-8.4-19.4-19.4-19.4H296.7c-11,0-19.4,8.4-19.4,19.4c0,11,8.4,19.4,19.4,19.4H512.8
			L512.8,1110.7z M177.6,777.2l7.6,7.6l6.8-8.4l54-68.4c3.4-4.2,2.5-10.1-1.7-13.5c-4.2-3.4-10.1-2.5-13.5,1.7l-47.3,59.9
			l-12.7-11.8c-4.2-3.4-10.1-3.4-13.5,0c-3.4,4.2-3.4,10.1,0,14.4L177.6,777.2L177.6,777.2z M177.6,948.6l7.6,7.6l6.8-8.4l54-68.4
			c3.4-4.2,2.5-10.1-1.7-13.5c-4.2-3.4-10.1-2.5-13.5,1.7l-47.3,59.9l-12.7-11.8c-4.2-3.4-10.1-3.4-13.5,0c-3.4,4.2-3.4,10.1,0,14.4
			L177.6,948.6L177.6,948.6z"/>
	</g>
</g>
</svg>
