<?xml version="1.0" encoding="utf-8"?>
<!-- Generator: Adobe Illustrator 18.1.1, SVG Export Plug-In . SVG Version: 6.00 Build 0)  -->
<svg version="1.1" id="Layer_1" xmlns="http://www.w3.org/2000/svg" xmlns:xlink="http://www.w3.org/1999/xlink" x="0px" y="0px"
	 viewBox="0 0 595.3 100.8" enable-background="new 0 0 595.3 100.8" xml:space="preserve">
<image overflow="visible" width="1180" height="302" xlink:href="968822C7.jpg"  transform="matrix(0.4971 0 0 0.4971 6.3789 -461.7864)">
</image>
<g>
	<path fill="#FFFFFF" d="M594.3,100.8c0,0-184.2,7.2-226.3-94.2c-12,25-56.8,45.5-77.9,45.3c-21,0.2-65.9-20.3-77.9-45.3
		C170.2,108,1,100.8,1,100.8"/>
	<path fill="#FFFFFF" d="M594.3,100.8c-5.4,0.2-10.8,0.3-16.2,0.3c-5.4,0-10.8-0.2-16.2-0.4c-10.8-0.5-21.6-1.3-32.3-2.5
		c-21.5-2.4-42.8-6.3-63.6-12.6c-10.4-3.1-20.6-6.8-30.6-11.3c-9.9-4.5-19.6-9.8-28.6-16c-9-6.3-17.4-13.6-24.6-22
		c-3.6-4.2-7-8.7-9.9-13.4c-3-4.7-5.6-9.7-7.8-14.8l0,0l7,0.2c-1.9,3.9-4.3,7.3-6.9,10.5c-2.7,3.2-5.6,6-8.7,8.7
		c-6.1,5.3-12.9,9.8-19.8,13.6c-7,3.9-14.3,7.2-21.9,9.8c-3.8,1.3-7.7,2.5-11.6,3.3c-4,0.9-8.1,1.5-12.4,1.5
		c-4.2,0-8.4-0.6-12.3-1.5c-4-0.9-7.8-2-11.6-3.3c-7.6-2.6-14.9-5.9-21.9-9.8c-7-3.9-13.7-8.3-19.8-13.6c-3.1-2.7-6-5.5-8.7-8.7
		c-2.7-3.2-5.1-6.6-6.9-10.5l0,0l7-0.2c-2.1,4.8-4.5,9.5-7.2,14c-2.7,4.5-5.8,8.8-9,12.9c-3.3,4.1-6.9,7.9-10.6,11.6
		c-3.7,3.6-7.7,7-11.9,10.2c-4.1,3.2-8.4,6.1-12.8,8.8c-4.4,2.7-8.9,5.2-13.6,7.5c-4.6,2.3-9.3,4.4-14.1,6.4
		c-4.8,1.9-9.6,3.7-14.5,5.3C102.5,91.3,82.4,95.4,62.1,98c-10.1,1.3-20.3,2.1-30.5,2.6c-5.1,0.2-10.2,0.4-15.3,0.4
		c-5.1,0-10.2,0-15.3-0.2c5.1,0.1,10.2,0,15.3-0.2c5.1-0.2,10.2-0.5,15.3-0.9c10.2-0.8,20.3-2,30.3-3.6c20.1-3.2,39.9-7.9,58.9-14.9
		c4.7-1.8,9.4-3.6,14-5.7c4.6-2.1,9.1-4.3,13.6-6.7c4.4-2.4,8.7-5,12.9-7.7c4.2-2.7,8.2-5.7,12.1-8.9c3.9-3.2,7.6-6.5,11-10.1
		c3.5-3.6,6.7-7.3,9.7-11.3c3-4,5.7-8.1,8.1-12.4c2.4-4.3,4.5-8.8,6.4-13.3c0.8-1.9,3-2.9,4.9-2.1c0.9,0.3,1.5,1,1.9,1.7l0.1,0.2
		l0,0c1.5,3.1,3.6,6.1,5.9,8.9c2.3,2.8,5,5.4,7.8,7.8c5.6,4.9,12,9.1,18.6,12.7c6.6,3.7,13.5,6.8,20.7,9.3c3.6,1.2,7.2,2.3,10.8,3.1
		c3.6,0.8,7.2,1.3,10.8,1.3c3.4,0,7.1-0.5,10.7-1.3c3.6-0.8,7.2-1.9,10.8-3.1c7.1-2.5,14-5.6,20.7-9.3c6.6-3.7,12.9-7.9,18.6-12.7
		c2.8-2.4,5.5-5,7.8-7.8c2.3-2.8,4.4-5.8,5.9-8.9c0.9-1.9,3.2-2.7,5.1-1.8c0.9,0.4,1.5,1.1,1.8,1.9l0,0l0,0c1.9,4.8,4.2,9.5,6.9,14
		c2.6,4.5,5.6,8.8,8.9,12.8c6.6,8.1,14.4,15.3,22.9,21.6c8.5,6.3,17.7,11.7,27.3,16.4c9.6,4.7,19.5,8.6,29.7,12
		c20.3,6.7,41.4,11.3,62.7,14.3c10.7,1.5,21.4,2.6,32.1,3.4c5.4,0.4,10.8,0.7,16.1,0.9C583.5,100.8,588.9,100.9,594.3,100.8z"/>
</g>
</svg>
