<?xml version="1.0" encoding="utf-8"?>
<!-- Generator: Adobe Illustrator 18.1.1, SVG Export Plug-In . SVG Version: 6.00 Build 0)  -->
<svg version="1.1" id="Layer_1" xmlns="http://www.w3.org/2000/svg" xmlns:xlink="http://www.w3.org/1999/xlink" x="0px" y="0px"
	 viewBox="0 0 595.3 841.9" enable-background="new 0 0 595.3 841.9" xml:space="preserve">
<path d="M289.7,340.1c-24.6-3.4-48.4-13.5-66.7-28.6l22.2-34.5c15.1,12.6,29.4,21,46,24.4v-48c-40.5-11.8-61.1-27.8-61.1-63.1v-0.8
	c0-32.8,23.8-54.7,59.5-58.9v-17.7h29.4v18.5c19.8,2.5,37.3,10.1,52.4,21.9l-19,35.4c-11.1-8.4-23.8-14.3-34.9-17.7v45.5
	c42.9,12.6,61.1,30.3,61.1,64v0.8c0,33.7-24.6,55.6-59.5,58.9v29.5h-29.4C289.7,370.4,289.7,340.1,289.7,340.1z M291.3,209.6v-40.4
	c-13.5,1.7-19.8,9.3-19.8,18.5v0.8C271.4,196.9,275.4,203.7,291.3,209.6z M317.5,260.9V303c13.5-1.7,19.8-8.4,19.8-19.4v-0.8
	C337.3,273.6,332.6,266.8,317.5,260.9z"/>
<path d="M0-0.1v842h595.3v-842H0z M556.4,787.2H38.9V54.6h517.5V787.2z"/>
<rect x="130.2" y="451.2" width="353.2" height="40.4"/>
<rect x="130.2" y="526.1" width="353.2" height="40.4"/>
<rect x="130.2" y="601.1" width="353.2" height="40.4"/>
<rect x="130.2" y="676" width="353.2" height="40.4"/>
</svg>
