<?xml version="1.0" encoding="utf-8"?>
<!-- Generator: Adobe Illustrator 18.1.1, SVG Export Plug-In . SVG Version: 6.00 Build 0)  -->
<svg version="1.1" id="Layer_1" xmlns="http://www.w3.org/2000/svg" xmlns:xlink="http://www.w3.org/1999/xlink" x="0px" y="0px"
	 viewBox="0 0 595.3 841.9" enable-background="new 0 0 595.3 841.9" xml:space="preserve">
<path d="M289.7,340.1c-24.6-3.4-48.4-13.5-66.7-28.6l22.2-34.5c15.1,12.6,29.4,21,46,24.4v-48c-40.5-11.8-61.1-27.8-61.1-63.1v-0.8
	c0-32.8,23.8-54.7,59.5-58.9v-17.7H319v18.5c19.8,2.5,37.3,10.1,52.4,21.9l-19,35.4c-11.1-8.4-23.8-14.3-34.9-17.7v45.5
	c42.9,12.6,61.1,30.3,61.1,64v0.8c0,33.7-24.6,55.6-59.5,58.9v29.5h-29.4C289.7,370.4,289.7,340.1,289.7,340.1z M291.3,209.6v-40.4
	c-13.5,1.7-19.8,9.3-19.8,18.5v0.8C271.4,196.9,275.4,203.7,291.3,209.6z M317.5,260.9V303c13.5-1.7,19.8-8.4,19.8-19.4v-0.8
	C337.3,273.6,332.6,266.8,317.5,260.9z"/>
<path d="M0-0.1v842h595.3v-842L0-0.1L0-0.1z M556.4,787.2H38.9V54.6h517.5V787.2z"/>
<g>
	<g>
		<path d="M386.8,474.9c0,1.1,0,2.3-0.4,3.1c0,0.4-0.4,1.1-0.4,1.5c-0.8,2.7-2.3,5-3.8,6.5L331,537.2c-3.1,3.1-7.3,4.6-11.5,4.6
			s-8.4-1.5-11.5-4.6c-6.1-6.1-6.1-16.4,0-22.9l23.7-23.7h-81.1c-49.3,0-89.8,40.1-89.8,89.8c0,24.1,9.2,46.6,26.4,63.5
			c6.1,6.1,6.1,16.4,0,22.9c-3.1,3.1-7.3,4.6-11.5,4.6c-4.2,0-8.4-1.5-11.5-4.6c-22.9-22.9-35.6-53.5-35.6-86
			c0-67.3,54.7-122,122-122h81.4l-23.7-23.7c-6.1-6.1-6.1-16.4,0-22.9c6.1-6.1,16.4-6.1,22.9,0l51.2,51.2c1.9,1.9,3.1,4.2,3.8,6.5
			c0,0.4,0.4,1.1,0.4,1.5C386.8,472.6,386.8,473.8,386.8,474.9z"/>
	</g>
</g>
<g>
	<g>
		<path d="M472.8,582c0,67.3-54.7,122-122,122h-81.4l23.7,23.7c6.5,6.1,6.5,16.4,0,22.9c-3.1,3.1-7.3,4.6-11.5,4.6
			c-4.2,0-8-1.5-11.5-4.6l-50.8-51.6c-1.9-1.9-3.1-4.2-3.8-6.5c0-0.4-0.4-1.1-0.4-1.5c-0.4-1.1-0.4-1.9-0.4-3.1s0-2.3,0.4-3.1
			c0-0.4,0.4-1.1,0.4-1.5c0.8-2.7,2.3-5,3.8-6.5l51.2-51.2c6.1-6.1,16.4-6.1,22.9,0c6.5,6.1,6.5,16.4,0,22.9l-23.7,23.7h81.4
			c49.3,0,89.8-40.1,89.8-89.8c0-24.1-9.2-46.6-26.4-63.5c-6.5-6.5-6.5-16.4,0-22.9c6.1-6.1,16.4-6.1,22.9,0
			C460.2,518.5,472.8,549.1,472.8,582z"/>
	</g>
</g>
</svg>
