<svg xmlns="http://www.w3.org/2000/svg" xmlns:xlink="http://www.w3.org/1999/xlink" version="1.1" id="Your_Icon" x="0px" y="0px" viewBox="5.0 -10.0 100.0 135.0" enable-background="new 0 0 100 100" xml:space="preserve" height="100px" width="100px">
<g>
	<g>
		<path fill="#000000" d="M71.5,22.2c0,0.3,0,0.6-0.1,0.8c0,0.1-0.1,0.3-0.1,0.4c-0.2,0.7-0.6,1.3-1,1.7L56.9,38.5    c-0.8,0.8-1.9,1.2-3,1.2s-2.2-0.4-3-1.2c-1.6-1.6-1.6-4.3,0-6l6.2-6.2H35.9c-12.9,0-23.5,10.5-23.5,23.5c0,6.3,2.4,12.2,6.9,16.6    c1.6,1.6,1.6,4.3,0,6c-0.8,0.8-1.9,1.2-3,1.2s-2.2-0.4-3-1.2c-6-6-9.3-14-9.3-22.5C4,32.3,18.3,18,35.9,18h21.3L51,11.8    c-1.6-1.6-1.6-4.3,0-6c1.6-1.6,4.3-1.6,6,0l13.4,13.4c0.5,0.5,0.8,1.1,1,1.7c0,0.1,0.1,0.3,0.1,0.4C71.5,21.6,71.5,21.9,71.5,22.2    z"/>
	</g>
</g>
<g>
	<g>
		<path fill="#000000" d="M94,50.2c0,17.6-14.3,31.9-31.9,31.9H40.8l6.2,6.2c1.7,1.6,1.7,4.3,0,6c-0.8,0.8-1.9,1.2-3,1.2    s-2.1-0.4-3-1.2L27.7,80.8c-0.5-0.5-0.8-1.1-1-1.7c0-0.1-0.1-0.3-0.1-0.4c-0.1-0.3-0.1-0.5-0.1-0.8s0-0.6,0.1-0.8    c0-0.1,0.1-0.3,0.1-0.4c0.2-0.7,0.6-1.3,1-1.7l13.4-13.4c1.6-1.6,4.3-1.6,6,0s1.7,4.3,0,6l-6.2,6.2h21.3    c12.9,0,23.5-10.5,23.5-23.5c0-6.3-2.4-12.2-6.9-16.6c-1.7-1.7-1.7-4.3,0-6c1.6-1.6,4.3-1.6,6,0C90.7,33.6,94,41.6,94,50.2z"/>
	</g>
</g>
</svg>